<svg width="160" height="36" viewBox="0 0 160 36" fill="none" xmlns="http://www.w3.org/2000/svg">
<path d="M13.2 34.712C13.2 35.096 11.856 35.288 9.168 35.288C5.968 35.16 4.368 34.952 4.368 34.664V17.672H1.92C1.28 17.672 0.96 16.568 0.96 14.36C0.96 13.784 1.008 13.08 1.104 12.248C1.232 11.416 1.472 11 1.824 11H4.368V6.776C4.368 6.136 5.712 5.816 8.4 5.816C11.12 5.816 12.48 6.072 12.48 6.584V9.656L12.528 11H16.608C17.152 11 17.424 12.12 17.424 14.36C17.424 16.6 17.152 17.72 16.608 17.72H13.2V34.712ZM21.8959 32.168C19.9119 29.96 18.9199 26.904 18.9199 23C18.9199 19.096 19.9119 16.04 21.8959 13.832C23.9119 11.624 26.6159 10.52 30.0079 10.52C33.3999 10.52 36.0879 11.624 38.0719 13.832C40.0559 16.04 41.0479 19.096 41.0479 23C41.0479 26.904 40.0559 29.96 38.0719 32.168C36.0879 34.376 33.3999 35.48 30.0079 35.48C26.6159 35.48 23.9119 34.376 21.8959 32.168ZM30.0079 18.536C28.2159 18.536 27.3199 20.008 27.3199 22.952C27.3199 25.896 28.2159 27.368 30.0079 27.368C31.8319 27.368 32.7439 25.896 32.7439 22.952C32.7439 20.008 31.8319 18.536 30.0079 18.536ZM56.5853 1.688C56.5853 1.208 57.8493 0.967998 60.3773 0.967998C61.2413 0.967998 62.2333 1.032 63.3533 1.16C64.5053 1.256 65.0813 1.4 65.0813 1.592V26.888H66.7613C67.5613 26.888 68.0893 27.608 68.3453 29.048C68.4093 29.464 68.4413 30.04 68.4413 30.776C68.4413 31.48 68.2173 32.344 67.7693 33.368C67.1293 34.776 66.1053 35.48 64.6973 35.48C63.6413 35.48 62.6973 35.272 61.8653 34.856C61.0653 34.44 60.5213 34.008 60.2333 33.56L59.8013 32.936C58.0413 34.632 55.8333 35.48 53.1773 35.48C50.5213 35.48 48.2493 34.376 46.3613 32.168C44.4733 29.96 43.5293 26.888 43.5293 22.952C43.5293 18.984 44.5213 15.928 46.5053 13.784C48.4893 11.608 50.9693 10.52 53.9453 10.52C54.8093 10.52 55.6893 10.616 56.5853 10.808V1.688ZM55.0013 18.2C53.2093 18.2 52.3133 19.816 52.3133 23.048C52.3133 24.68 52.5693 25.864 53.0813 26.6C53.5933 27.304 54.1533 27.656 54.7613 27.656C55.4013 27.656 56.0093 27.384 56.5853 26.84V18.68C56.0413 18.36 55.5133 18.2 55.0013 18.2ZM73.6459 32.168C71.6619 29.96 70.6699 26.904 70.6699 23C70.6699 19.096 71.6619 16.04 73.6459 13.832C75.6619 11.624 78.3659 10.52 81.7579 10.52C85.1499 10.52 87.8379 11.624 89.8219 13.832C91.8059 16.04 92.7979 19.096 92.7979 23C92.7979 26.904 91.8059 29.96 89.8219 32.168C87.8379 34.376 85.1499 35.48 81.7579 35.48C78.3659 35.48 75.6619 34.376 73.6459 32.168ZM81.7579 18.536C79.9659 18.536 79.0699 20.008 79.0699 22.952C79.0699 25.896 79.9659 27.368 81.7579 27.368C83.5819 27.368 84.4939 25.896 84.4939 22.952C84.4939 20.008 83.5819 18.536 81.7579 18.536ZM104.927 34.616C104.927 34.904 103.295 35.048 100.031 35.048C97.4713 35.016 96.1913 34.888 96.1913 34.664V1.976C96.1913 1.496 97.7433 1.256 100.847 1.256C103.567 1.352 104.927 1.512 104.927 1.736V34.616ZM118.053 34.712C118.053 34.968 116.581 35.096 113.637 35.096C110.725 35.096 109.269 34.984 109.269 34.76V11.192C109.269 10.968 110.725 10.856 113.637 10.856C116.581 10.856 118.053 10.952 118.053 11.144V34.712ZM118.053 8.312C118.053 8.536 116.581 8.648 113.637 8.648C110.725 8.648 109.269 8.552 109.269 8.36V1.448C109.269 1.128 110.725 0.967998 113.637 0.967998C116.581 0.967998 118.053 1.064 118.053 1.256V8.312ZM123.402 26.36C125.994 27.928 128.042 28.712 129.546 28.712C130.506 28.712 130.986 28.376 130.986 27.704C130.986 27.224 130.154 26.6 128.49 25.832C124.49 24.2 122.49 21.528 122.49 17.816C122.49 15.448 123.354 13.64 125.082 12.392C126.81 11.144 128.874 10.52 131.274 10.52C133.706 10.52 135.754 10.776 137.418 11.288C139.114 11.8 139.962 12.472 139.962 13.304C139.962 14.008 139.61 14.936 138.906 16.088C138.234 17.24 137.77 17.864 137.514 17.96C136.138 17.192 134.65 16.808 133.05 16.808C132.186 16.808 131.754 17.112 131.754 17.72C131.754 18.104 131.914 18.44 132.234 18.728C132.586 18.984 133.21 19.32 134.106 19.736C135.002 20.12 135.738 20.472 136.314 20.792C136.922 21.112 137.594 21.56 138.33 22.136C139.866 23.352 140.634 24.936 140.634 26.888C140.634 29.448 139.786 31.528 138.09 33.128C136.394 34.696 133.834 35.48 130.41 35.48C128.138 35.48 126.074 35.096 124.218 34.328C122.362 33.56 121.434 32.504 121.434 31.16C121.434 30.264 121.642 29.32 122.058 28.328C122.506 27.336 122.954 26.68 123.402 26.36ZM155.044 34.712C155.044 35.096 153.7 35.288 151.012 35.288C147.812 35.16 146.212 34.952 146.212 34.664V17.672H143.764C143.124 17.672 142.804 16.568 142.804 14.36C142.804 13.784 142.852 13.08 142.948 12.248C143.076 11.416 143.316 11 143.668 11H146.212V6.776C146.212 6.136 147.556 5.816 150.244 5.816C152.964 5.816 154.324 6.072 154.324 6.584V9.656L154.372 11H158.452C158.996 11 159.268 12.12 159.268 14.36C159.268 16.6 158.996 17.72 158.452 17.72H155.044V34.712Z" fill="#FF9500"/>
</svg>
